<svg viewBox="0 0 96 96" xmlns="http://www.w3.org/2000/svg" xmlns:xlink="http://www.w3.org/1999/xlink" id="Icons_Pen_M" overflow="hidden"><path d="M89.26 14.624C90.31 13.437 90.567 11.042 87.827 8.195 86.6641 6.88869 85.0291 6.09891 83.283 6 82.5081 5.96291 81.749 6.22741 81.165 6.738L50.879 35.006 47.835 38.035 28.389 58.222C27.633 58.9973 26.904 59.7973 26.202 60.622L17.559 70.374 14.859 73.779 7.679 83.167C7.39861 83.6694 7.5046 84.2991 7.934 84.682L5.659 88.382C5.39457 88.7992 5.45974 89.3448 5.815 89.688 6.01095 89.886 6.27743 89.9982 6.556 90 6.75685 89.9991 6.95337 89.9416 7.123 89.834L10.787 87.534C11.0432 87.7881 11.3863 87.9353 11.747 87.946 11.9383 87.9491 12.1261 87.8936 12.285 87.787L21.748 80.671 25.17 77.988 34.922 69.344C35.7473 68.6427 36.5473 67.9137 37.322 67.157L57.511 47.71 60.541 44.669 84.5 19.6 84.755 19.333 85.544 20.122C86.3248 20.903 86.3248 22.169 85.544 22.95L67.704 40.79C67.3079 41.1749 67.2989 41.808 67.6838 42.2041 68.0686 42.6001 68.7017 42.6092 69.0978 42.2243 69.106 42.2164 69.1141 42.2082 69.122 42.2L86.962 24.36C88.5235 22.798 88.5235 20.266 86.962 18.704L86.141 17.883 87.259 16.714ZM12.026 85.479 9.988 83.44 16.424 75.023 17.007 74.288 21.244 78.524 20.544 79.071ZM35.926 65.724C35.187 66.445 34.413 67.151 33.595 67.847L23.888 76.447 22.828 77.278 18.258 72.708 19.091 71.658 27.724 61.916C28.395 61.128 29.1 60.354 29.824 59.607L49.246 39.452 49.961 38.741 56.805 45.585 56.123 46.27ZM59.126 43.257 58.218 44.169 51.379 37.331 52.268 36.447 82.53 8.2 82.548 8.183 82.573 8.158C82.7895 8.03805 83.0361 7.98319 83.283 8 84.4792 8.11624 85.587 8.68154 86.383 9.582 88.033 11.297 88.262 12.692 87.776 13.282L85.81 15.34 83.055 18.221Z"/></svg>